<svg xmlns="http://www.w3.org/2000/svg" viewBox="0 0 511 511"><path d="M492.2 309.6l-17.6-10.2c3-14.7 4.5-29.5 4.5-43.9 0-14.6-1.5-29.4-4.4-43.9l17.6-10.1c5.4-3.1 9.3-8.2 10.9-14.3s0.8-12.4-2.3-17.8l-48-83.1c-3.1-5.4-8.2-9.3-14.3-10.9 -6.1-1.6-12.4-0.8-17.8 2.3l-17.6 10.1C380.9 68.2 354.8 53.1 327 43.7V23.5C327 10.5 316.5 0 303.5 0h-96C194.5 0 184 10.5 184 23.5v20.2c-27.6 9.4-53.7 24.5-76 44.1L90.3 77.6c-5.4-3.1-11.8-4-17.8-2.3 -6.1 1.6-11.1 5.5-14.3 10.9l-48 83.1c-3.1 5.4-4 11.8-2.3 17.8s5.5 11.1 10.9 14.3l17.6 10.2C33.5 226.3 32 241.1 32 255.5c0 14.6 1.5 29.4 4.4 43.9l-17.6 10.1c-11.2 6.5-15.1 20.9-8.6 32.1l48 83.1c6.5 11.2 20.9 15.1 32.1 8.6l17.6-10.1c22.2 19.5 48.3 34.6 76.1 44V487.5c0 13 10.5 23.5 23.5 23.5h96c13 0 23.5-10.5 23.5-23.5v-20.2c27.7-9.4 53.7-24.5 76-44.1l17.7 10.2c11.2 6.5 25.6 2.6 32.1-8.6l48-83.1C507.2 330.5 503.4 316.1 492.2 309.6zM487.8 334.2l-48 83.1c-2.3 4.1-7.6 5.5-11.6 3.1l-22.4-12.9c-2.8-1.6-6.4-1.2-8.8 1 -22.9 21.2-50.4 37.1-79.7 46.2 -3.1 1-5.3 3.9-5.3 7.2V487.5c0 4.7-3.8 8.5-8.5 8.5h-96c-4.7 0-8.5-3.8-8.5-8.5v-25.6c0-3.3-2.1-6.2-5.3-7.2 -29.4-9.1-57-25.1-79.8-46.1 -1.4-1.3-3.2-2-5.1-2 -1.3 0-2.6 0.3-3.7 1L82.8 420.4c-4.1 2.3-9.3 0.9-11.6-3.1l-48-83.1c-2.3-4.1-0.9-9.3 3.1-11.6l22.3-12.9c2.8-1.6 4.3-4.9 3.6-8.1C48.7 286.4 47 270.9 47 255.5c0-15.1 1.8-30.6 5.2-46 0.7-3.2-0.7-6.5-3.6-8.1L26.3 188.4c-2-1.1-3.4-3-4-5.2 -0.6-2.2-0.3-4.5 0.8-6.4l48-83.1c1.1-2 3-3.4 5.2-4 2.2-0.6 4.5-0.3 6.5 0.8l22.4 12.9c2.8 1.6 6.4 1.2 8.8-1 22.9-21.2 50.4-37.1 79.7-46.2 3.1-1 5.3-3.9 5.3-7.2V23.5c0-4.7 3.8-8.5 8.5-8.5h96c4.7 0 8.5 3.8 8.5 8.5v25.6c0 3.3 2.1 6.2 5.3 7.2 29.4 9.1 57 25.1 79.8 46.1 2.4 2.2 6 2.6 8.8 1l22.3-12.9c2-1.1 4.3-1.4 6.5-0.8 2.2 0.6 4 2 5.2 4l48 83.1c1.1 2 1.4 4.3 0.8 6.5 -0.6 2.2-2 4-4 5.2l-22.3 12.9c-2.8 1.6-4.3 4.9-3.6 8.1 3.4 15.2 5.2 30.7 5.2 46.1 0 15.1-1.8 30.6-5.2 46 -0.7 3.2 0.7 6.5 3.6 8.1l22.3 12.9C488.7 324.9 490.1 330.1 487.8 334.2z"/><path d="M255.5 104C172 104 104 172 104 255.5S172 407 255.5 407 407 339 407 255.5 339 104 255.5 104zM255.5 392C180.2 392 119 330.8 119 255.5S180.2 119 255.5 119 392 180.2 392 255.5 330.8 392 255.5 392z"/><path d="M283.5 216h-28c-4.1 0-7.5 3.4-7.5 7.5v64c0 4.1 3.4 7.5 7.5 7.5s7.5-3.4 7.5-7.5V271h20.5c15.2 0 27.5-12.3 27.5-27.5S298.7 216 283.5 216zM283.5 256H263v-25h20.5c6.9 0 12.5 5.6 12.5 12.5S290.4 256 283.5 256z"/><path d="M214.5 220.9c-1.1-2.9-3.9-4.9-7-4.9h-8c-3.1 0-5.9 1.9-7 4.9l-24 64c-1.5 3.9 0.5 8.2 4.4 9.7 3.9 1.5 8.2-0.5 9.7-4.4L186.7 279h33.6l4.2 11.1c1.1 3 4 4.9 7 4.9 0.9 0 1.8-0.2 2.6-0.5 3.9-1.5 5.8-5.8 4.4-9.7L214.5 220.9zM192.3 264l11.2-29.8L214.7 264H192.3z"/><path d="M327.5 216c-4.1 0-7.5 3.4-7.5 7.5v64c0 4.1 3.4 7.5 7.5 7.5s7.5-3.4 7.5-7.5v-64C335 219.4 331.6 216 327.5 216z"/><path d="M309.2 87.3c5.2 1.7 10.4 3.6 15.4 5.7 1 0.4 2 0.6 2.9 0.6 2.9 0 5.7-1.7 6.9-4.6 1.6-3.8-0.2-8.2-4-9.8 -5.5-2.3-11.1-4.4-16.7-6.2 -3.9-1.3-8.2 0.9-9.4 4.9C303 81.8 305.2 86 309.2 87.3z"/><path d="M100.5 339.9c-2-3.6-6.5-5-10.2-3 -3.6 2-5 6.5-3 10.2 3.1 5.7 6.6 11.3 10.2 16.7 1.5 2.1 3.8 3.3 6.2 3.3 1.5 0 2.9-0.4 4.2-1.3 3.4-2.3 4.3-7 1.9-10.4C106.5 350.3 103.3 345.2 100.5 339.9z"/><path d="M240.1 431.3c-40.2-3.5-78.3-20.9-107.4-49 -3-2.9-7.7-2.8-10.6 0.2 -2.9 3-2.8 7.7 0.2 10.6 31.6 30.6 72.9 49.5 116.6 53.2 0.2 0 0.4 0 0.7 0 3.9 0 7.1-2.9 7.5-6.9C247.3 435.3 244.3 431.7 240.1 431.3z"/><path d="M363.4 97.3c-3.4-2.3-8.1-1.5-10.4 2 -2.3 3.4-1.5 8.1 2 10.4 34.8 23.8 60 59.2 71 99.8 0.9 3.3 3.9 5.6 7.2 5.6 0.6 0 1.3-0.1 2-0.3 4-1.1 6.4-5.2 5.3-9.2C428.6 161.6 401.2 123.1 363.4 97.3z"/></svg>
 