<svg xmlns="http://www.w3.org/2000/svg" viewBox="0 0 60 60"><path d="M51 19.7c-0.5-9-7.9-16.2-16.9-16.2 -5.4 0-10.7 2.7-13.9 7 -0.1 0-0.2-0.1-0.2-0.1 -0.2-0.1-0.4-0.2-0.6-0.3 -0.1 0-0.2-0.1-0.4-0.1 -0.2-0.1-0.4-0.1-0.6-0.2 -0.1 0-0.2-0.1-0.4-0.1 -0.2 0-0.4-0.1-0.7-0.1 -0.1 0-0.2 0-0.3 0C16.7 9.5 16.3 9.5 16 9.5c-5 0-9 4-9 9 0 0.1 0 0.3 0 0.4C2.9 21.1 0 25.9 0 30.7 0 37.7 5.8 43.5 12.8 43.5H18c0.6 0 1-0.4 1-1s-0.4-1-1-1h-5.2C6.9 41.5 2 36.6 2 30.7c0-4.2 2.7-8.5 6.4-10.3L9 20.1V19.5c0-0.1 0-0.2 0-0.4l0-0.2L9 18.8C9 18.7 9 18.6 9 18.5c0-3.9 3.1-7 7-7 0.3 0 0.6 0 0.9 0.1 0.1 0 0.2 0 0.2 0 0.3 0 0.5 0.1 0.8 0.2 0 0 0.1 0 0.1 0 0.3 0.1 0.6 0.2 0.8 0.3 0.1 0 0.1 0.1 0.2 0.1 0.2 0.1 0.5 0.3 0.7 0.4C21.7 13.9 23 16 23 18.5c0 0.6 0.4 1 1 1s1-0.4 1-1c0-2.8-1.2-5.2-3.2-6.9C24.7 7.9 29.4 5.5 34.1 5.5c7.7 0 14.2 6.1 14.8 13.9 -1-0.1-2.6-0.1-4.1 0.1 -0.5 0.1-0.9 0.6-0.8 1.1 0.1 0.5 0.5 0.9 1 0.9 0.1 0 0.1 0 0.2 0 2.2-0.3 4.5 0 4.7 0C54.5 22.4 58 26.7 58 31.5 58 37 53.5 41.5 48 41.5H44c-0.6 0-1 0.4-1 1s0.4 1 1 1h4C54.6 43.5 60 38.1 60 31.5 60 26 56.2 21.1 51 19.7z"/><path d="M38.3 34.2C38.5 34.4 38.7 34.5 39 34.5s0.5-0.1 0.7-0.3c0.4-0.4 0.4-1 0-1.4l-8-8c-0.1-0.1-0.2-0.2-0.3-0.2 -0.2-0.1-0.5-0.1-0.8 0 -0.1 0.1-0.2 0.1-0.3 0.2l-8 8c-0.4 0.4-0.4 1 0 1.4C22.5 34.4 22.7 34.5 23 34.5s0.5-0.1 0.7-0.3L30 27.9v25.2l-6.3-6.3c-0.4-0.4-1-0.4-1.4 0s-0.4 1 0 1.4l8 8c0.1 0.1 0.2 0.2 0.3 0.2C30.7 56.5 30.9 56.5 31 56.5s0.3 0 0.4-0.1c0.1-0.1 0.2-0.1 0.3-0.2l8-8c0.4-0.4 0.4-1 0-1.4s-1-0.4-1.4 0L32 53.1V27.9L38.3 34.2z"/></svg>