<svg xmlns="http://www.w3.org/2000/svg" viewBox="0 0 512 512"><path d="M265.9 100.8c-85.3 0-154.8 69.6-154.8 155.2s69.4 155.2 154.8 155.2c1 0 2 0 3.1-0.1 61.6-1.2 116.3-38.5 139.9-95.7 1.7-4-0.2-8.6-4.2-10.2 -4-1.7-8.6 0.2-10.2 4.2 -2 4.8-4.2 9.4-6.7 13.9 -5.6-2.5-11.3-4.9-17.2-7.1 5.1-16.5 8-34.1 8.7-52.4h25.5c-0.3 5.4-0.9 10.7-1.8 15.9 -0.7 4.3 2.1 8.3 6.4 9 4.3 0.7 8.3-2.1 9-6.4 1.5-8.7 2.2-17.5 2.2-26.4C420.6 170.4 351.2 100.8 265.9 100.8zM350.5 186.1c-9.9 3.1-20.1 5.6-30.5 7.5 -4.4-27.6-11.7-52.3-21.9-69.2C320.3 135.4 338.9 157.5 350.5 186.1zM359.4 263.8h4.1c-0.7 16.7-3.4 32.7-7.8 47.3 -10.9-3.4-22.1-6.1-33.6-8.2 1.5-12.8 2.3-26 2.6-39.1h4.4c4.3 0 7.8-3.5 7.8-7.8 0-4.3-3.5-7.8-7.8-7.8h-4.4c-0.2-13.1-1.1-26.3-2.6-39.1 11.5-2.1 22.7-4.9 33.6-8.2 4.4 14.7 7.2 30.6 7.8 47.3h-4.1c-4.3 0-7.8 3.5-7.8 7.8C351.6 260.3 355.1 263.8 359.4 263.8zM273.7 263.8h35.4c-0.2 12.6-1 24.9-2.3 36.6 -10.9-1.4-21.9-2.3-33-2.6V263.8zM273.7 119.4c7.4 5.3 14.8 17.5 20.9 35 4.2 12.2 7.6 26.3 10 41.6 -10.2 1.3-20.5 2.2-30.9 2.4V119.4zM273.7 214.1h0c11.1-0.3 22.2-1.1 33-2.6 1.3 11.7 2.1 24 2.3 36.6h-35.4V214.1zM222.7 248.2c0.2-12.5 1-24.8 2.3-36.6 10.9 1.4 21.9 2.3 33 2.6v34.1H222.7zM258 263.8v34.1c-11.1 0.3-22.2 1.1-33 2.6 -1.3-11.7-2.1-24-2.3-36.6H258zM233.6 124.3c-3.6 6-7.1 13.3-10.4 22.4 -1.5 4.1 0.6 8.6 4.7 10 4.1 1.5 8.6-0.6 10-4.7 5.9-16.2 13-27.7 20.1-32.7v79c-10.4-0.3-20.7-1.1-30.9-2.4 0.7-4.7 1.6-9.2 2.5-13.7 0.9-4.2-1.9-8.4-6.1-9.3 -4.2-0.9-8.4 1.9-9.3 6.1 -1 4.7-1.8 9.5-2.6 14.4 -10.4-1.9-20.5-4.4-30.4-7.5C192.9 157.5 211.4 135.4 233.6 124.3zM207 263.8c0.2 13.1 1.1 26.3 2.6 39.1 -11.5 2.1-22.7 4.9-33.6 8.2 -4.4-14.7-7.2-30.6-7.8-47.3H207zM168.2 248.2c0.7-16.7 3.4-32.7 7.8-47.3 10.9 3.4 22.1 6.1 33.5 8.2 -1.4 12.6-2.3 25.8-2.5 39.1H168.2zM192.3 137.7c-2.6 3-5.1 6.2-7.5 9.6 -7.3 10.2-13.5 21.5-18.4 33.7 -4.7-1.8-9.4-3.7-13.9-5.7C163.1 160.3 176.7 147.5 192.3 137.7zM144.1 188.7c5.6 2.5 11.3 4.9 17.1 7 -5.1 16.5-8 34.1-8.7 52.4H127C128.2 226.7 134.2 206.5 144.1 188.7zM127 263.8h25.5c0.7 18.2 3.6 35.9 8.7 52.4 -5.8 2.2-11.5 4.5-17.1 7C134.2 305.5 128.2 285.3 127 263.8zM152.5 336.7c4.6-2 9.2-3.9 13.9-5.7 4.9 12.2 11.1 23.6 18.4 33.7 2.4 3.4 4.9 6.6 7.5 9.6C176.7 364.5 163.1 351.7 152.5 336.7zM181.2 325.9c9.9-3 20.1-5.6 30.5-7.5 4.4 27.6 11.7 52.3 21.9 69.2C211.4 376.6 192.9 354.5 181.2 325.9zM273.7 392.6v-29c0-4.3-3.5-7.8-7.8-7.8 -4.3 0-7.8 3.5-7.8 7.8v29c-7.4-5.3-14.8-17.5-20.9-35 -4.2-12.2-7.6-26.3-10-41.6 10.2-1.3 20.5-2.2 30.9-2.4v18.7c0 4.3 3.5 7.8 7.8 7.8 4.3 0 7.8-3.5 7.8-7.8v-18.7c10.4 0.3 20.8 1.1 30.9 2.4 -2.4 15.3-5.8 29.4-10 41.6C288.5 375.1 281.1 387.4 273.7 392.6zM298.1 387.7c10.1-17 17.5-41.7 21.9-69.2 10.4 1.9 20.6 4.4 30.5 7.5C338.9 354.5 320.3 376.6 298.1 387.7zM379.4 336.7c-10.8 15.3-24.5 28.2-40.2 37.9 2.7-3.1 5.3-6.4 7.8-9.9 7.3-10.2 13.5-21.5 18.4-33.7C370.1 332.8 374.8 334.7 379.4 336.7zM365.4 181c-4.9-12.2-11.1-23.6-18.4-33.7 -2.4-3.4-4.9-6.6-7.5-9.6 15.6 9.8 29.2 22.6 39.8 37.6C374.7 177.3 370.1 179.2 365.4 181zM379.3 248.2c-0.7-18.2-3.6-35.9-8.7-52.4 5.8-2.2 11.5-4.5 17.1-7 9.8 17.8 15.9 38 17.1 59.4H379.3z"/><path d="M483.9 256.1l-19.9-20c-1.5-1.5-3.5-2.3-5.5-2.3 -2.1 0-4.1 0.8-5.5 2.3l-19.9 20c-3.1 3.1-3 8 0 11.1 3.1 3.1 8 3 11.1 0l6.9-6.9c-2.3 100.4-84.4 181.4-185.1 181.4 -102.1 0-185.1-83.3-185.1-185.6S163.8 70.4 265.9 70.4c4.3 0 7.8-3.5 7.8-7.8 0-4.3-3.5-7.8-7.8-7.8C155.2 54.7 65.1 145 65.1 256s90.1 201.3 200.8 201.3c109.1 0 198.1-87.6 200.7-196.3l6.2 6.2c1.5 1.5 3.5 2.3 5.5 2.3 2 0 4-0.8 5.5-2.3C487 264.2 487 259.2 483.9 256.1z"/><path d="M427.1 135.8c-2.6-3.4-5.3-6.8-8.1-10 -2.8-3.3-7.8-3.7-11-0.9 -3.3 2.8-3.7 7.8-0.9 11.1 2.6 3 5.1 6.1 7.4 9.3 1.5 2.1 3.9 3.1 6.3 3.1 1.6 0 3.3-0.5 4.7-1.6C429 144.1 429.7 139.2 427.1 135.8z"/><path d="M449.9 174.5c-1.7-3.9-3.6-7.8-5.6-11.6 -2-3.8-6.8-5.3-10.6-3.3 -3.8 2-5.3 6.8-3.3 10.6 1.8 3.5 3.6 7.1 5.2 10.7 1.3 2.9 4.2 4.7 7.2 4.7 1.1 0 2.1-0.2 3.2-0.7C449.9 183.1 451.7 178.5 449.9 174.5z"/><path d="M463.5 217.5c-0.8-4.2-1.8-8.4-2.9-12.6 -1.1-4.2-5.4-6.7-9.6-5.6 -4.2 1.1-6.7 5.4-5.6 9.6 1 3.8 1.9 7.7 2.6 11.6 0.7 3.7 4 6.3 7.7 6.3 0.5 0 1 0 1.5-0.1C461.5 225.8 464.3 221.7 463.5 217.5z"/><path d="M358.9 77.9c-3.8-2-7.7-3.9-11.6-5.6 -4-1.7-8.6 0-10.3 4 -1.7 4 0 8.6 4 10.3 3.6 1.6 7.2 3.3 10.7 5.1 1.2 0.6 2.4 0.9 3.6 0.9 2.8 0 5.6-1.5 7-4.2C364.3 84.6 362.8 79.9 358.9 77.9z"/><path d="M316.9 61.7c-4.1-1.1-8.4-2-12.6-2.8 -4.3-0.8-8.4 2-9.2 6.2 -0.8 4.3 2 8.4 6.2 9.2 3.9 0.7 7.8 1.6 11.6 2.6 0.7 0.2 1.3 0.3 2 0.3 3.5 0 6.7-2.3 7.6-5.9C323.6 67.1 321.1 62.8 316.9 61.7z"/><path d="M396.3 103c-3.3-2.8-6.6-5.5-10.1-8 -3.5-2.6-8.4-1.9-11 1.6 -2.6 3.5-1.9 8.4 1.6 11 3.2 2.4 6.3 4.8 9.3 7.4 1.5 1.3 3.3 1.9 5.1 1.9 2.2 0 4.4-0.9 6-2.8C400 110.8 399.6 105.8 396.3 103z"/><path d="M439.9 81.5C393.4 34.9 331.6 9.2 265.9 9.2c0 0 0 0 0 0 -65.7 0-127.6 25.7-174 72.3 -42.8 42.9-67.9 98.8-71.6 158.8l-6.9-6.9c-3.1-3.1-8-3.1-11.1 0 -3.1 3.1-3.1 8 0 11.1l20 20c1.5 1.5 3.5 2.3 5.5 2.3s4.1-0.8 5.5-2.3l19.9-20c3.1-3.1 3.1-8 0-11.1 -3.1-3.1-8-3-11.1 0l-6.2 6.2c3.8-55.6 27.3-107.3 66.9-147.1 43.5-43.6 101.4-67.7 162.9-67.7 61.6 0 119.4 24 162.9 67.7 43.5 43.6 67.5 101.7 67.5 163.4s-24 119.8-67.5 163.4c-42.8 42.9-99.5 66.9-159.9 67.6 -4.7 0-11.1-0.7-15.1-0.9 -4.3-0.2-8 3.1-8.2 7.4 -0.2 4.3 3.1 7.6 7.4 8.2 5.3 0.8 11.8 1 12.9 1 65.7 0 127.6-25.7 174-72.3C486.4 383.9 512 321.9 512 256S486.4 128.1 439.9 81.5z"/><path d="M44 320.6c-1.1-3.9-2.2-7.8-3.1-11.7 -1-4.2-5.2-6.8-9.4-5.8 -4.2 1-6.8 5.2-5.8 9.4 1 4.2 2.1 8.4 3.3 12.5 1 3.4 4.1 5.6 7.5 5.6 0.7 0 1.5-0.1 2.2-0.3C42.8 329.1 45.2 324.8 44 320.6z"/><path d="M82.1 395.8c-2.5-3.2-4.8-6.5-7.1-9.8 -2.4-3.6-7.3-4.5-10.9-2 -3.6 2.4-4.5 7.3-2 10.9 2.4 3.5 5 7.1 7.6 10.5 1.5 2 3.9 3.1 6.2 3.1 1.7 0 3.3-0.5 4.8-1.6C84.1 404.2 84.8 399.2 82.1 395.8z"/><path d="M59.6 360c-1.8-3.6-3.6-7.3-5.2-10.9 -1.8-4-6.4-5.7-10.3-4 -4 1.8-5.7 6.4-4 10.3 1.7 3.9 3.6 7.9 5.5 11.7 1.4 2.7 4.1 4.3 7 4.3 1.2 0 2.4-0.3 3.5-0.9C60 368.5 61.5 363.8 59.6 360z"/><path d="M223.7 482.6c-4-0.7-7.9-1.6-11.9-2.5 -4.2-1-8.4 1.6-9.4 5.8 -1 4.2 1.6 8.4 5.8 9.4 4.2 1 8.4 1.9 12.7 2.7 0.5 0.1 1 0.1 1.4 0.1 3.7 0 7-2.6 7.7-6.4C230.7 487.5 227.9 483.4 223.7 482.6z"/><path d="M110.9 427c-3-2.7-5.9-5.5-8.8-8.4 -3.1-3.1-8-3.1-11.1 0 -3.1 3.1-3.1 8 0 11.1 3 3 6.2 6 9.4 8.9 1.5 1.4 3.4 2 5.2 2 2.1 0 4.3-0.9 5.8-2.6C114.4 434.8 114.1 429.9 110.9 427z"/><path d="M144.8 452.4c-3.4-2.1-6.8-4.3-10.2-6.6 -3.6-2.5-8.4-1.6-10.9 2 -2.5 3.6-1.6 8.4 2 10.9 3.5 2.4 7.2 4.8 10.9 7.1 1.3 0.8 2.7 1.2 4.1 1.2 2.6 0 5.2-1.3 6.7-3.7C149.7 459.4 148.5 454.6 144.8 452.4z"/><path d="M182.9 471.1c-3.8-1.4-7.5-3-11.2-4.6 -3.9-1.8-8.6 0-10.3 4 -1.8 4 0 8.6 4 10.3 3.9 1.8 8 3.4 12 5 0.9 0.4 1.9 0.5 2.8 0.5 3.2 0 6.1-1.9 7.3-5C188.9 477.2 186.9 472.7 182.9 471.1z"/></svg>