<svg xmlns="http://www.w3.org/2000/svg" viewBox="0 0 512 512"><path d="M486.4 425c-50.9-27-90-42.2-124.8-48l3.6-4.9c1.7-1.7 2.6-4.3 1.7-6.8l-8-32c2.9-4.1 5.6-8.3 8.2-12.7 31.8-10.8 47.9-29.1 50.6-56.1 14-0.7 26-13.2 26-27.3v-64c0-14-11.1-26.4-25.7-27.3C416.1 96.7 394.4 0 256 0 117.6 0 95.9 96.7 94 146c-13.9 0.8-25.7 12.4-25.7 27.3v64c0 14.5 12.8 27.3 28.2 27.3h12.8c4.7 0 9.2-1.4 13.2-3.7 4.8 25.7 15.5 50.9 30.7 72.4l-8 32c0 1.7 0 4.3 1.7 6.8l3.6 4.9c-34.8 5.8-73.8 21-124.8 48C9.4 432.6 0 448.9 0 466.8v36.7C0 508.6 3.4 512 8.5 512h204.8 3.4 78.5 3.4 204.8c5.1 0 8.5-3.4 8.5-8.5v-36.7C512 449.7 501.8 433.5 486.4 425zM256 405.4l20.4 46.8h-41.2L256 405.4zM229 469.3h53.9l5 25.6h-64L229 469.3zM345.6 349.9l3.4 15.4 -8.7 12c-0.6 0.5-1.1 1-1.5 1.7l-35.5 49.1 -11.3 15.5 -23-51.8c28.1-3.4 53-17.7 73.1-38.2C343.3 352.3 344.4 351.1 345.6 349.9zM378.9 296.8c4.8-11.7 8.4-23.9 10.7-36.2 3.2 2 6.9 3.3 10.9 3.7C399.1 276.4 393.8 287.8 378.9 296.8zM425.8 172.4v64c0 5.1-4.3 10.2-10.2 10.2h-12.8c-5.1 0-10.2-4.3-10.2-10.2V230.4v-58c0-5.1 4.3-10.2 10.2-10.2h12.8C420.7 162.1 425.8 166.4 425.8 172.4zM256 17.1c52.6 0 141.1 17.2 144.9 129 -3.6 0.4-7 1.5-10.1 3.1C380.4 84.2 323.8 34.1 256 34.1c-67.8 0-124.4 50.1-134.8 115 -3.1-1.6-6.5-2.7-10.1-3.1C114.9 34.2 203.4 17.1 256 17.1zM118.6 236.4c0 5.1-4.3 10.2-10.2 10.2h-12.8c-5.1 0-10.2-4.3-10.2-10.2v-64c0-5.1 4.3-10.2 10.2-10.2h12.8c5.1 0 10.2 4.3 10.2 10.2V236.4zM136.5 170.7C136.5 105 190.3 51.2 256 51.2s119.5 53.8 119.5 119.5V230.4c0 28.2-7.3 54.1-19.3 75.9 -20.4 5.9-49.7 9.4-91.7 9.4 -5.1 0-8.5 3.4-8.5 8.5s3.4 8.5 8.5 8.5c30.7 0 56.5-1.9 77.5-5.8 -0.5 0.5-1 1-1.6 1.6 -4.3 5.7-8.8 10.9-13.6 15.6 -20.1 18.7-44.1 30.1-67.2 31.2 -1.2-0.5-2.5-0.7-3.8-0.7 -1.3 0-2.5 0.3-3.6 0.8 -14.1-0.6-28.6-5.1-42.3-12.8 -13.9-8-27-19.5-38.6-34 -0.9-0.9-1.7-1.7-2.6-2.6l-0.5-0.2c-19.2-25.1-31.9-58.2-31.9-95.4V170.7zM243 391.7l-23 51.8 -11.3-15.5 -35.5-49.1c-0.3-0.3-0.6-0.5-0.9-0.8l-9.4-12.8 3.4-15.4c1.2 1.2 2.3 2.5 3.5 3.6C189.9 374 214.9 388.3 243 391.7zM17.1 466.8c0-11.1 6-21.3 16.2-26.5 54.4-28.9 93.5-43.4 128.4-47.7l50.9 70 -6.5 32.3H17.1V466.8zM494.9 494.9H305.8l-6.5-32.3 51.5-70.8c34.8 5.2 74.6 19.7 127.9 47.6 10.2 6 16.2 16.2 16.2 27.3V494.9z"/></svg>