<svg xmlns="http://www.w3.org/2000/svg" id="Layer_1" viewBox="0 0 512 512"><path d="M509.4 184.2c-10.4-19.9-27.2-35.1-47.9-43.3 -2.1-0.8-4.3-1.6-6.4-2.3 -23.6-7.4-48.7-5.3-70.6 6.2 -0.1 0.1-0.2 0.1-0.3 0.2l-105.3 60.5L174.5 98c-2.4-2.5-6.2-3.1-9.4-1.5l-45.1 23.4c-3.8 2-5.4 6.9-3.4 10.7l67.3 129.3 -103.1 59.3 -37.2-38.6c-2.4-2.5-6.3-3.2-9.4-1.5L4.3 294.8c-3.9 2-5.4 6.8-3.4 10.7l39.8 76.5c7.4 14.3 22 22.5 37.1 22.5 5.9 0 11.8-1.2 17.5-3.8l130.9-59.7 70.3 135.2c2 3.8 6.9 5.4 10.7 3.4l45.1-23.4c3.1-1.6 4.8-5.1 4.1-8.5l-29.2-153.1 77.3-35.1c4-1.8 5.8-6.5 3.9-10.5 -1.8-4-6.5-5.8-10.5-3.9l-83 37.7c-3.3 1.5-5.2 5.1-4.5 8.7l29.2 153.4 -32.8 17.1 -70.1-134.9c-1.9-3.7-6.5-5.3-10.3-3.6L88.7 386.3c-12.6 5.8-27.5 0.7-33.8-11.6l-36.2-69.5 17.7-9.2 37.4 38.8c2.5 2.6 6.5 3.2 9.7 1.4l308.5-177.3c11.9-6.1 24.6-8.9 37.1-8.5l-25.3 13.2c-3.9 2-5.4 6.8-3.4 10.7l15.6 30.1c2 3.8 6.9 5.4 10.7 3.4l58.8-30.6c3.8 4.4 7.1 9.2 9.9 14.6 2.1 4.1 0.3 9.2-3.8 11.1l-66.3 30.1c-4 1.8-5.8 6.5-3.9 10.5 1.8 4 6.5 5.8 10.5 3.9l66.3-30.1C510.3 211.5 515.6 196.2 509.4 184.2zM197.8 252.1l-63.3-121.7 32.8-17.1 97.4 100.2L197.8 252.1zM426.4 189.8L418.1 173.8l36-18.7c4.5 1.7 8.9 3.8 13 6.3 2.1 1.3 4.1 2.6 6.1 4.1L426.4 189.8z"/><path d="M397.1 194.8c-2-3.9-6.8-5.4-10.7-3.4l-15 7.8c-3.5 1.8-5.2 6.2-3.7 9.9 1.7 4.4 6.9 6.3 11.1 4.2l15-7.8C397.6 203.5 399.1 198.7 397.1 194.8z"/><path d="M352 218.3c-2-3.9-6.8-5.4-10.7-3.4l-15 7.8c-3.5 1.8-5.2 6.2-3.7 9.9 1.7 4.4 6.9 6.3 11.1 4.2l15-7.8C352.5 227 354 222.2 352 218.3z"/><path d="M306.9 241.7c-2-3.9-6.8-5.4-10.7-3.4l-15 7.8c-3.5 1.8-5.2 6.2-3.7 9.9 1.7 4.4 6.9 6.3 11.1 4.2l15-7.8C307.4 250.4 309 245.6 306.9 241.7z"/><path d="M261.9 265.2c-2-3.9-6.8-5.4-10.7-3.4l-15 7.8c-3.5 1.8-5.2 6.2-3.7 9.9 1.7 4.4 6.9 6.3 11.1 4.2l15-7.8C262.4 273.9 263.9 269.1 261.9 265.2z"/><path d="M216.8 288.6c-2-3.9-6.8-5.4-10.7-3.4l-15 7.8c-3.5 1.8-5.2 6.2-3.7 9.9 1.7 4.4 6.9 6.3 11.1 4.2l15-7.8C217.3 297.3 218.8 292.5 216.8 288.6z"/><path d="M171.7 312.1c-2-3.9-6.8-5.4-10.7-3.4l-15 7.8c-3.5 1.8-5.2 6.2-3.7 9.9 1.7 4.4 6.9 6.3 11.1 4.2l15-7.8C172.2 320.8 173.7 316 171.7 312.1z"/><path d="M126.6 335.5c-2-3.9-6.8-5.4-10.7-3.4l-15 7.8c-3.5 1.8-5.2 6.2-3.7 9.9 1.7 4.4 6.9 6.3 11.1 4.2l15-7.8C127.1 344.2 128.6 339.4 126.6 335.5z"/><path d="M212 459.8h-3.2c-4.7-10.1-14.9-16.9-26.4-16.9 -2.9 0-5.7 0.4-8.4 1.2 -5.5-10.9-16.8-18.2-29.7-18.2 -12.7 0-24 7.2-29.6 18 -2.8-0.7-5.6-1.1-8.5-1.1 -18.4 0-33.3 15-33.3 33.3s15 33.3 33.3 33.3h105.9c13.7 0 24.9-11.2 24.9-24.9C236.8 470.9 225.7 459.8 212 459.8zM212 493.7H106.1c-9.6 0-17.5-7.8-17.5-17.5 0-9.6 7.8-17.5 17.5-17.5 3.2 0 6.3 0.9 9 2.5 4.7 2.8 10.9 0 11.9-5.3 1.6-8.2 8.8-14.2 17.1-14.2 8.7 0 15.9 6.2 17.3 14.7 0.9 5.9 8 8.7 12.7 5 2.4-1.8 5.2-2.8 8.1-2.8 6.3 0 11.7 4.4 13 10.6 0.8 3.7 4 6.4 7.8 6.4h8.9c5 0 9 4 9 9C221 489.6 216.9 493.7 212 493.7z"/><path d="M415.2 36.3h-3.2c-4.7-10.1-14.9-16.9-26.4-16.9 -2.9 0-5.7 0.4-8.4 1.2C371.7 9.7 360.4 2.5 347.5 2.5c-12.7 0-24 7.2-29.6 18 -2.8-0.7-5.6-1.1-8.5-1.1 -18.4 0-33.3 15-33.3 33.3s15 33.3 33.3 33.3h105.9c13.7 0 24.9-11.2 24.9-24.9C440.1 47.5 428.9 36.3 415.2 36.3zM415.2 70.2H309.4c-9.6 0-17.5-7.8-17.5-17.5 0-9.6 7.8-17.5 17.5-17.5 3.2 0 6.3 0.9 9 2.5 4.7 2.8 10.9 0 11.9-5.3 1.6-8.2 8.8-14.2 17.1-14.2 8.7 0 15.9 6.2 17.3 14.7 0.9 5.9 8 8.7 12.7 5 2.4-1.8 5.2-2.8 8.1-2.8 6.3 0 11.7 4.4 13 10.6 0.8 3.7 4 6.4 7.8 6.4h8.9c5 0 9 4 9 9S420.2 70.2 415.2 70.2z"/></svg>
 