<svg xmlns="http://www.w3.org/2000/svg" viewBox="0 0 512 512"><path d="M398.4 0H33.1c-4.1 0-7.5 3.4-7.5 7.5v51.2C11 61.8 0 74.7 0 90.2s11 28.4 25.6 31.4v13.7C11 138.3 0 151.2 0 166.7c0 15.5 11 28.4 25.6 31.4v13.7C11 214.8 0 227.7 0 243.2c0 15.5 11 28.4 25.6 31.4v13.7C11 291.3 0 304.2 0 319.7c0 15.5 11 28.4 25.6 31.4v13.7C11 367.8 0 380.7 0 396.2c0 15.5 11 28.4 25.6 31.4v51.2c0 4.1 3.4 7.5 7.5 7.5h68.1c4.1 0 7.5-3.4 7.5-7.5 0-4.1-3.4-7.5-7.5-7.5H40.6v-89.9c5.1 3 8.5 8.5 8.5 14.8 0 4.1 3.4 7.5 7.5 7.5s7.5-3.4 7.5-7.5c0-14.7-10-27.2-23.6-30.9v-60.4c5.1 3 8.5 8.5 8.5 14.8 0 4.1 3.4 7.5 7.5 7.5s7.5-3.4 7.5-7.5c0-14.7-10-27.2-23.6-30.9v-60.4c5.1 3 8.5 8.5 8.5 14.8 0 4.1 3.4 7.5 7.5 7.5s7.5-3.4 7.5-7.5c0-14.7-10-27.2-23.6-30.9v-60.4c5.1 3 8.5 8.5 8.5 14.8 0 4.1 3.4 7.5 7.5 7.5s7.5-3.4 7.5-7.5c0-14.7-10-27.2-23.6-30.9V75.4c5.1 3 8.5 8.5 8.5 14.8 0 4.1 3.4 7.5 7.5 7.5s7.5-3.4 7.5-7.5c0-14.7-10-27.2-23.6-30.9V15h350.3V65.6c0 4.1 3.4 7.5 7.5 7.5 4.1 0 7.5-3.4 7.5-7.5V7.5C405.9 3.4 402.6 0 398.4 0zM25.6 412c-6.2-2.6-10.6-8.7-10.6-15.8 0-7.1 4.4-13.2 10.6-15.8V412zM25.6 335.5c-6.2-2.6-10.6-8.7-10.6-15.8 0-7.1 4.4-13.2 10.6-15.8V335.5zM25.6 259c-6.2-2.6-10.6-8.7-10.6-15.8 0-7.1 4.4-13.2 10.6-15.8V259zM25.6 182.5c-6.2-2.6-10.6-8.7-10.6-15.8 0-7.1 4.4-13.2 10.6-15.8V182.5zM25.6 106c-6.2-2.6-10.6-8.7-10.6-15.8 0-7.1 4.4-13.2 10.6-15.8V106z"/><path d="M157 106.1c-2.9-2.9-7.7-2.9-10.6 0l-15.2 15.2 -4.9-4.9c-2.9-2.9-7.7-2.9-10.6 0 -2.9 2.9-2.9 7.7 0 10.6l10.2 10.2c1.5 1.5 3.4 2.2 5.3 2.2s3.8-0.7 5.3-2.2l20.5-20.5C159.9 113.8 159.9 109.1 157 106.1z"/><path d="M171.1 79.7h-69.9c-4.1 0-7.5 3.4-7.5 7.5v69.9c0 4.1 3.4 7.5 7.5 7.5h69.9c4.1 0 7.5-3.4 7.5-7.5V87.2C178.7 83.1 175.3 79.7 171.1 79.7zM163.6 149.6h-54.9V94.7h54.9V149.6z"/><path d="M323.5 96.7H208.4c-4.1 0-7.5 3.4-7.5 7.5s3.4 7.5 7.5 7.5h115.1c4.1 0 7.5-3.4 7.5-7.5S327.6 96.7 323.5 96.7z"/><path d="M274.2 131.7h-65.9c-4.1 0-7.5 3.4-7.5 7.5s3.4 7.5 7.5 7.5h65.9c4.1 0 7.5-3.4 7.5-7.5S278.4 131.7 274.2 131.7z"/><path d="M157 225.3c-2.9-2.9-7.7-2.9-10.6 0l-15.2 15.2 -4.9-4.9c-2.9-2.9-7.7-2.9-10.6 0 -2.9 2.9-2.9 7.7 0 10.6l10.2 10.2c1.5 1.5 3.4 2.2 5.3 2.2s3.8-0.7 5.3-2.2l20.5-20.5C159.9 233 159.9 228.3 157 225.3z"/><path d="M171.1 198.9h-69.9c-4.1 0-7.5 3.4-7.5 7.5v69.9c0 4.1 3.4 7.5 7.5 7.5h69.9c4.1 0 7.5-3.4 7.5-7.5V206.4C178.7 202.3 175.3 198.9 171.1 198.9zM163.6 268.8h-54.9v-54.9h54.9V268.8z"/><path d="M323.5 215.9H208.4c-4.1 0-7.5 3.4-7.5 7.5s3.4 7.5 7.5 7.5h115.1c4.1 0 7.5-3.4 7.5-7.5S327.6 215.9 323.5 215.9z"/><path d="M274.2 250.9h-65.9c-4.1 0-7.5 3.4-7.5 7.5s3.4 7.5 7.5 7.5h65.9c4.1 0 7.5-3.4 7.5-7.5S278.4 250.9 274.2 250.9z"/><path d="M157 344.5c-2.9-2.9-7.7-2.9-10.6 0l-15.2 15.2 -4.9-4.9c-2.9-2.9-7.7-2.9-10.6 0 -2.9 2.9-2.9 7.7 0 10.6l10.2 10.2c1.5 1.5 3.4 2.2 5.3 2.2s3.8-0.7 5.3-2.2l20.5-20.5C159.9 352.2 159.9 347.4 157 344.5z"/><path d="M171.1 318.1h-69.9c-4.1 0-7.5 3.4-7.5 7.5v69.9c0 4.1 3.4 7.5 7.5 7.5h69.9c4.1 0 7.5-3.4 7.5-7.5V325.6C178.7 321.5 175.3 318.1 171.1 318.1zM163.6 388h-54.9v-54.9h54.9V388z"/><path d="M405.9 272.2V95.6c0-4.1-3.4-7.5-7.5-7.5 -4.1 0-7.5 3.4-7.5 7.5v175.7c-1.1 0-2.2 0-3.3 0.1 -0.3 0-0.5 0-0.8 0 -1 0-2.1 0.1-3.1 0.2 -0.4 0-0.7 0.1-1.1 0.1 -1.1 0.1-2.2 0.2-3.3 0.3 -0.2 0-0.3 0-0.5 0 -1.2 0.1-2.5 0.3-3.7 0.5 -0.3 0-0.7 0.1-1 0.1 -1 0.1-1.9 0.3-2.9 0.5 -0.3 0.1-0.6 0.1-1 0.2 -1.2 0.2-2.4 0.5-3.6 0.7 -0.2 0-0.3 0.1-0.5 0.1 -1.1 0.2-2.1 0.5-3.2 0.7 -0.3 0.1-0.7 0.2-1 0.2 -1 0.3-2 0.5-3 0.8 -0.2 0.1-0.4 0.1-0.6 0.2 -1.2 0.3-2.4 0.7-3.5 1.1 -0.3 0.1-0.5 0.2-0.8 0.3 -1 0.3-1.9 0.6-2.8 1 -0.3 0.1-0.6 0.2-0.8 0.3 -2.3 0.8-4.6 1.8-6.9 2.8 -0.3 0.1-0.5 0.2-0.8 0.3 -1 0.4-1.9 0.9-2.9 1.3 -0.2 0.1-0.3 0.1-0.5 0.2 -1.1 0.5-2.2 1.1-3.4 1.7 -0.1 0.1-0.3 0.2-0.4 0.2 -1 0.5-1.9 1-2.9 1.6 -0.2 0.1-0.4 0.2-0.6 0.4 -2.2 1.2-4.3 2.5-6.4 3.9 -0.2 0.1-0.3 0.2-0.5 0.3 -0.9 0.6-1.9 1.3-2.8 1.9 -0.1 0.1-0.2 0.1-0.3 0.2 -1.1 0.7-2.1 1.5-3.1 2.3 0 0 0 0 0 0 -1 0.7-2 1.5-2.9 2.3 -0.1 0.1-0.3 0.2-0.4 0.3 -2 1.6-3.9 3.3-5.8 5 -0.1 0.1-0.1 0.1-0.2 0.2 -0.9 0.8-1.8 1.7-2.6 2.5 -0.1 0.1-0.1 0.1-0.2 0.2 -1.8 1.8-3.6 3.7-5.3 5.6 -0.1 0.1-0.1 0.2-0.2 0.2 -1.7 2-3.4 4-5 6 0 0 0 0 0 0 -0.8 1-1.6 2.1-2.3 3.1 0 0-0.1 0.1-0.1 0.1 -1.5 2.1-3 4.3-4.4 6.5 0 0.1-0.1 0.1-0.1 0.2 -1.4 2.2-2.7 4.5-4 6.9h-77.2c-4.1 0-7.5 3.4-7.5 7.5s3.4 7.5 7.5 7.5h70.4c0 0 0 0 0 0 -0.6 1.5-1.1 3-1.6 4.5 -0.1 0.2-0.1 0.3-0.2 0.5 -0.5 1.5-0.9 3-1.4 4.5 0 0.2-0.1 0.3-0.1 0.4 -0.9 3.2-1.6 6.5-2.2 9.8 0 0 0 0 0 0.1h-64.9c-4.1 0-7.5 3.4-7.5 7.5s3.4 7.5 7.5 7.5h63.2c0 0 0 0 0 0 -0.1 1.1-0.1 2.1-0.1 3.2 0 0 0 0.1 0 0.1 0 1.1 0 2.2 0 3.3 0 1 0 2 0 2.9 0 0.3 0 0.7 0 1 0 0.7 0 1.3 0.1 2 0 0.4 0 0.8 0.1 1.1 0 0.6 0.1 1.2 0.1 1.8 0 0.4 0.1 0.8 0.1 1.2 0 0.6 0.1 1.2 0.2 1.8 0 0.4 0.1 0.7 0.1 1.1 0.1 0.6 0.1 1.3 0.2 1.9 0 0.3 0.1 0.6 0.1 1 0.1 0.7 0.2 1.4 0.3 2.1 0 0.2 0.1 0.5 0.1 0.7 0.1 0.9 0.3 1.7 0.4 2.6 0 0.1 0 0.1 0 0.2 3.9 21.7 13.6 41.9 28.3 58.4H131.3c-4.1 0-7.5 3.4-7.5 7.5 0 4.1 3.4 7.5 7.5 7.5h186.3c20.4 16 46.2 25.6 74.1 25.6 66.3 0 120.3-54 120.3-120.3C512 330.1 465.6 279.3 405.9 272.2zM391.7 497c-50.7 0-93.2-36-103.1-83.8 0-0.1-0.1-0.3-0.1-0.4 -0.1-0.6-0.2-1.3-0.4-1.9 -0.1-0.3-0.1-0.6-0.2-0.9 -0.1-0.5-0.2-1.1-0.3-1.6 -0.1-0.4-0.1-0.8-0.2-1.2 -0.1-0.5-0.1-1-0.2-1.5 -0.1-0.5-0.1-0.9-0.2-1.4 -0.1-0.4-0.1-0.9-0.2-1.3 -0.1-0.5-0.1-1-0.1-1.5 0-0.4-0.1-0.8-0.1-1.2 0-0.6-0.1-1.1-0.1-1.7 0-0.4-0.1-0.7-0.1-1.1 0-0.6-0.1-1.3-0.1-1.9 0-0.3 0-0.6 0-0.9 0-0.9 0-1.9 0-2.8 0-58.1 47.2-105.3 105.3-105.3 1 0 2 0 3.1 0 0.1 0 0.1 0 0.2 0 1 0 2 0.1 3 0.1 55.2 3.3 99.1 49.2 99.1 105.1C497 449.7 449.7 497 391.7 497z"/><path d="M391.7 308.6c-16.6 0-32.7 4.9-46.4 14.2 -3.4 2.3-4.3 7-2 10.4 2.3 3.4 7 4.3 10.4 2 11.3-7.6 24.4-11.6 38-11.6 37.5 0 68.1 30.5 68.1 68.1s-30.5 68.1-68.1 68.1 -68.1-30.5-68.1-68.1c0-13.4 3.9-26.4 11.3-37.5 2.3-3.5 1.3-8.1-2.1-10.4 -3.5-2.3-8.1-1.3-10.4 2.1 -9 13.6-13.8 29.4-13.8 45.8 0 45.8 37.3 83.1 83.1 83.1s83.1-37.3 83.1-83.1C474.7 345.9 437.5 308.6 391.7 308.6z"/><path d="M399.3 368.7v-27.3c0-4.1-3.4-7.5-7.5-7.5 -4.1 0-7.5 3.4-7.5 7.5v27.3c-9.1 3.1-15.6 11.8-15.6 21.9 0 4.2 1.1 8.1 3.1 11.5l-10.4 11.7c-2.8 3.1-2.5 7.8 0.6 10.6 1.4 1.3 3.2 1.9 5 1.9 2.1 0 4.1-0.8 5.6-2.5l10.5-11.7c2.7 1.1 5.7 1.7 8.8 1.7 12.8 0 23.1-10.4 23.1-23.1C414.9 380.5 408.4 371.9 399.3 368.7zM391.8 398.8c-4.5 0-8.1-3.7-8.1-8.1 0-4.5 3.7-8.1 8.1-8.1 4.5 0 8.1 3.7 8.1 8.1C399.9 395.1 396.3 398.8 391.8 398.8z"/></svg>